ffprobe version n2.6.1 Copyright (c) 2007-2015 the FFmpeg developers
  built with gcc 4.8 (Ubuntu 4.8.2-19ubuntu1)
  configuration: --prefix=/opt/ffmpeg --extra-cflags=-I/opt/ffmpeg/include --extra-ldflags=-L/opt/ffmpeg/lib --extra-libs=-ldl --enable-gpl --enable-libass --enable-libfdk-aac --enable-libfreetype --enable-libmp3lame --enable-libtheora --enable-libvorbis --enable-libvpx --enable-libx264 --enable-libx265 --enable-nonfree
  libavutil      54. 20.100 / 54. 20.100
  libavcodec     56. 26.100 / 56. 26.100
  libavformat    56. 25.101 / 56. 25.101
  libavdevice    56.  4.100 / 56.  4.100
  libavfilter     5. 11.102 /  5. 11.102
  libswscale      3.  1.101 /  3.  1.101
  libswresample   1.  1.100 /  1.  1.100
  libpostproc    53.  3.100 / 53.  3.100
Input #0, matroska,webm, from 'Ghost_in_the_Shell_S.A.C_Solid_State_Society_[1080p,BluRay,x264,DTS]_-_THORA.mkv':
  Metadata:
    title           : Ghost in the Shell: Stand Alone Complex - Solid State Society
    encoder         : libebml v0.7.7 + libmatroska v0.8.1
    creation_time   : 2008-08-19 04:10:48
  Duration: 01:48:34.51, start: 0.000000, bitrate: 8628 kb/s
    Stream #0:0(jpn): Video: h264 (High), yuv420p, 1920x1080, SAR 1:1 DAR 16:9, 23.98 fps, 23.98 tbr, 1k tbn, 47.95 tbc (default)
    Stream #0:1(jpn): Audio: dts (DTS), 48000 Hz, 5.1(side), fltp, 1536 kb/s (default)
    Stream #0:2(eng): Subtitle: ass (default)
    Stream #0:3: Attachment: ttf
    Metadata:
      filename        : TCCEB.TTF
      mimetype        : application/x-truetype-font
    Stream #0:4: Attachment: ttf
    Metadata:
      filename        : Montara-BoldGothic.ttf
      mimetype        : application/x-truetype-font
    Stream #0:5: Attachment: ttf
    Metadata:
      filename        : Prototype.ttf
      mimetype        : application/x-truetype-font
    Stream #0:6: Attachment: ttf
    Metadata:
      filename        : Montara-BoldGothic.ttf
      mimetype        : application/x-truetype-font
    Stream #0:7: Attachment: ttf
    Metadata:
      filename        : Prototype.ttf
      mimetype        : application/x-truetype-font
    Stream #0:8: Attachment: ttf
    Metadata:
      filename        : TCCEB.TTF
      mimetype        : application/x-truetype-font
Unsupported codec with id 98304 for input stream 3
Unsupported codec with id 98304 for input stream 4
Unsupported codec with id 98304 for input stream 5
Unsupported codec with id 98304 for input stream 6
Unsupported codec with id 98304 for input stream 7
Unsupported codec with id 98304 for input stream 8
